<?xml version="1.0" standalone="no"?>
<!DOCTYPE svg PUBLIC "-//W3C//DTD SVG 20010904//EN"
 "http://www.w3.org/TR/2001/REC-SVG-20010904/DTD/svg10.dtd">
<svg version="1.0" xmlns="http://www.w3.org/2000/svg"
 width="500.000000pt" height="500.000000pt" viewBox="0 0 500.000000 500.000000"
 preserveAspectRatio="xMidYMid meet">
<metadata>
Created by potrace 1.11, written by Peter Selinger 2001-2013
</metadata>
<g transform="translate(0.000000,500.000000) scale(0.100000,-0.100000)"
fill="#000000" stroke="none">
<path d="M32 4362 c-33 -3 -33 -4 -28 -45 3 -23 8 -67 11 -97 4 -30 8 -66 10
-80 2 -14 7 -54 11 -90 3 -36 8 -76 10 -90 7 -62 14 -132 24 -222 6 -53 12
-105 14 -115 2 -10 7 -53 11 -96 3 -43 8 -88 11 -100 4 -22 8 -57 19 -170 4
-32 8 -66 10 -75 1 -9 6 -46 10 -82 3 -36 9 -83 11 -105 6 -47 9 -74 19 -170
8 -81 14 -91 110 -205 l72 -85 134 2 c74 1 144 2 156 2 21 1 28 17 79 179 2 7
21 -8 46 -35 24 -27 64 -70 89 -97 l47 -49 162 1 c89 0 164 2 165 4 2 2 6 28
10 58 3 30 10 80 15 110 5 30 12 73 15 94 11 79 15 46 15 -135 l0 -184 31 -38
c35 -42 42 -37 -66 -42 -27 -1 -55 -3 -61 -4 -8 -1 -11 -97 -12 -318 -1 -386
1 -350 -14 -335 -9 9 -13 62 -13 180 -1 153 -3 171 -22 202 -12 19 -47 86 -78
148 -32 62 -65 116 -74 121 -9 4 -95 7 -191 7 l-175 -1 -3 -731 c-2 -684 -1
-731 15 -750 10 -11 49 -54 86 -97 l69 -77 178 0 c133 0 179 3 182 13 2 6 3
91 2 188 -1 97 2 182 6 189 17 28 25 -3 23 -96 -1 -100 4 -121 39 -158 11 -12
40 -47 65 -79 l44 -57 154 0 154 0 47 -55 48 -55 466 0 466 0 0 53 0 52 147 3
147 3 25 87 c15 48 28 93 30 100 3 8 27 12 75 12 l70 0 65 -100 66 -100 159 0
158 0 47 -55 47 -55 310 0 309 0 57 27 c75 36 181 141 214 213 30 64 65 193
75 277 11 95 7 344 -7 403 -36 155 -201 384 -353 489 -58 39 -139 77 -187 86
-19 4 -161 8 -315 8 l-280 2 -5 -168 -5 -168 -29 118 -29 118 -130 175 c-71
96 -132 177 -134 180 -8 10 -424 5 -432 -5 -6 -7 -175 -661 -196 -755 -7 -31
-24 -99 -55 -215 -17 -66 -33 -129 -35 -140 -20 -93 -50 -193 -56 -189 -4 2
-6 58 -6 123 1 66 0 129 -3 139 -3 11 -45 63 -95 116 -89 96 -89 96 -137 96
-32 0 -48 4 -48 13 0 9 44 12 193 11 105 0 197 1 202 3 7 2 11 58 12 151 l0
147 -80 120 c-44 66 -82 122 -84 125 -2 2 -138 4 -302 5 l-299 0 -22 28 c-12
15 -27 33 -33 40 -21 21 -57 69 -57 76 0 3 131 6 291 6 160 0 293 3 296 8 3 5
5 68 5 141 -1 112 1 128 13 113 12 -17 33 -18 297 -15 l283 3 56 27 c63 32 91
54 125 99 l23 31 11 -43 c32 -120 176 -302 290 -366 91 -50 143 -64 247 -64
111 -1 219 29 299 82 42 29 134 126 134 142 0 4 11 25 24 46 l24 38 454 1
c249 0 459 1 465 1 10 1 13 46 12 189 l-1 187 -105 102 -105 102 -111 3 c-76
2 -112 7 -114 15 -3 9 34 13 154 15 l158 3 0 174 c-1 172 -1 174 -25 193 -14
11 -49 40 -78 65 -97 83 -104 88 -152 89 -25 1 -48 2 -52 3 -5 0 -8 33 -8 71
l0 70 200 0 c110 0 200 3 201 8 0 4 1 81 2 171 2 189 14 161 -130 321 l-42 46
-403 -1 c-222 -1 -406 -3 -410 -4 -4 0 -9 -112 -10 -248 l-3 -248 -23 36 c-29
48 -115 131 -178 172 -89 59 -149 79 -249 82 -141 4 -236 -33 -344 -134 -30
-28 -55 -50 -56 -48 -33 51 -190 264 -218 294 -43 46 -112 83 -172 90 -81 10
-605 8 -608 -2 -2 -5 -3 -81 -3 -168 1 -86 -2 -157 -7 -157 -4 0 -12 11 -17
25 -5 14 -13 26 -17 26 -5 1 -143 3 -308 4 -352 3 -326 1 -319 19 6 14 -9 50
-30 72 -6 7 -42 51 -80 98 -54 66 -76 86 -95 87 -14 0 -92 1 -174 2 l-147 2
-6 -30 c-3 -16 -7 -46 -9 -65 -2 -19 -4 -38 -4 -42 -2 -19 -20 -3 -66 62 -38
54 -55 70 -75 71 -27 1 -159 0 -201 0 -21 -1 -28 -7 -33 -28 -14 -60 -31 -113
-36 -112 -3 0 -29 31 -58 70 -36 47 -60 69 -75 70 -86 3 -298 3 -325 1z m2079
-872 c5 -74 3 -700 -2 -700 -4 0 -9 6 -12 14 -4 9 -23 14 -59 14 -174 1 -178
2 -178 17 0 12 19 15 115 15 l115 0 0 178 0 177 -78 78 c-73 73 -81 78 -125
80 l-47 2 1 65 c1 36 3 67 4 70 2 3 62 5 134 5 109 0 131 -2 132 -15z m1724
-90 l145 0 0 -67 -1 -68 -30 35 -29 35 -138 0 -137 1 -2 40 c-4 58 3 68 27 44
18 -18 33 -20 165 -20z m243 -1702 c14 -57 9 -442 -7 -472 -8 -14 -17 -26 -20
-26 -3 0 -6 119 -6 265 0 200 3 265 12 265 7 0 16 -15 21 -32z"/>
</g>
</svg>
