<svg id="Layer_1" data-name="Layer 1" xmlns="http://www.w3.org/2000/svg" width="511" height="511" viewBox="0 0 511 511"><title>facebook-icon</title><path d="M417.72,122.34a29.57,29.57,0,1,1-29.57-29.56h0A29.58,29.58,0,0,1,417.72,122.34Zm93.9,133.49v.38L509.94,363.4A147.93,147.93,0,0,1,363.69,509.64l-107.57,1.69h-.37l-107.19-1.67A147.93,147.93,0,0,1,2.31,363.41L.63,255.83v-.37l1.68-107.2A147.93,147.93,0,0,1,148.56,2L256.12.34h.38L363.69,2A147.92,147.92,0,0,1,509.93,148.26Zm-47.58,0L462.36,149A100.55,100.55,0,0,0,363,49.59L256.12,47.92,149.3,49.59A100.57,100.57,0,0,0,49.88,149L48.21,255.83l1.67,106.83a100.55,100.55,0,0,0,99.42,99.41l106.82,1.67L363,462.07a100.54,100.54,0,0,0,99.41-99.41Zm-76.71,0a131.21,131.21,0,1,1-131.21-131.2h0A131.35,131.35,0,0,1,387.33,255.83Zm-47.58,0a83.63,83.63,0,1,0-83.63,83.63h0a83.72,83.72,0,0,0,83.63-83.63Z" transform="translate(-0.63 -0.34)"/><rect x="67.23" y="67.23" width="376.53" height="376.53" rx="81" style="fill:#fff"/><path d="M218.2,408.33V275.42H177.51v-59.8h41.62V166.14s1.9-62.32,55.29-62.81h59.42V162H297s-15.57,0-15.57,17.54v37.12h53.32l-6.41,59.75h-46V408.33Z" transform="translate(-0.63 -0.34)"/></svg>