<svg id="Google_alt" data-name="Google alt" xmlns="http://www.w3.org/2000/svg" width="420" height="420" viewBox="0 0 420 420"><title>insta-icon</title><rect x="33" y="33" width="354" height="354" rx="12" style="fill:#fff"/><path d="M342.65,99.61a24.3,24.3,0,1,1-24.31-24.29h0A24.3,24.3,0,0,1,342.65,99.61Zm77.18,109.72v.31l-1.38,88.1a121.56,121.56,0,0,1-120.2,120.2l-88.41,1.39h-.31L121.42,418A121.58,121.58,0,0,1,1.21,297.75L-.17,209.33V209l1.37-88.11A121.59,121.59,0,0,1,121.42.72L209.83-.67h.31L298.24.72a121.58,121.58,0,0,1,120.2,120.2Zm-39.11,0-1.38-87.8a82.65,82.65,0,0,0-81.71-81.71l-87.8-1.37L122,39.82a82.66,82.66,0,0,0-81.72,81.71l-1.37,87.8,1.37,87.8A82.66,82.66,0,0,0,122,378.85l87.8,1.37,87.8-1.37a82.65,82.65,0,0,0,81.71-81.72Zm-63.05,0A107.84,107.84,0,1,1,209.83,101.49h0A108,108,0,0,1,317.67,209.33Zm-39.11,0a68.74,68.74,0,1,0-68.73,68.74h0a68.81,68.81,0,0,0,68.73-68.74Z" transform="translate(0.17 0.67)"/></svg>