<svg id="Layer_1" data-name="Layer 1" xmlns="http://www.w3.org/2000/svg" width="511" height="511" viewBox="0 0 511 511"><title>purple-facebook-icon</title><rect x="48" y="48" width="415" height="415" rx="45" style="fill:#fff"/><path d="M512.08,256.06v.37L510.4,363.62A147.92,147.92,0,0,1,364.15,509.86l-107.57,1.69h-.37L149,509.87A147.93,147.93,0,0,1,2.77,363.63L1.08,256.06v-.38L2.77,148.49A147.94,147.94,0,0,1,149,2.24L256.58.56H257l107.2,1.68A147.92,147.92,0,0,1,510.39,148.48Zm-47.59,0-1.67-106.83A100.56,100.56,0,0,0,363.4,49.81L256.58,48.15,149.76,49.81a100.57,100.57,0,0,0-99.42,99.42L48.67,256.06l1.67,106.82a100.57,100.57,0,0,0,99.42,99.42L256.58,464,363.4,462.3a100.56,100.56,0,0,0,99.42-99.42Z" transform="translate(-1.08 -0.56)" style="fill:#dc64f7"/><path d="M218.66,408.56V275.64H178V215.85h41.62V166.37s1.9-62.33,55.29-62.81H334.3v58.67H297.44s-15.56,0-15.56,17.54v37.12H335.2l-6.41,59.76h-46V408.56Z" transform="translate(-1.08 -0.56)" style="fill:#dc64f7"/></svg>